<svg width="512" height="512" xmlns="http://www.w3.org/2000/svg">
    <defs>
        <linearGradient id="svg_14" y2="-0.146354167%" x2="38.7857471%" y1="96.2929688%"
                        x1="59.0074847%">
            <stop offset="14.44%" stop-color="#F2E913"/>
            <stop offset="30.37%" stop-color="#E7E518"/>
            <stop offset="58.23%" stop-color="#CADB26"/>
            <stop offset="89.1%" stop-color="#A3CD39"/>
        </linearGradient>
        <linearGradient id="svg_13" y2="38.6562394%" x2="94.6151042%" y1="58.3771408%"
                        x1="8.68515625%">
            <stop offset="5.92%" stop-color="#0FA8E0"/>
            <stop offset="53.85%" stop-color="#0099F9"/>
            <stop offset="92.34%" stop-color="#0291EB"/>
        </linearGradient>
        <linearGradient id="svg_12" y2="43.7548231%" x2="95.3828125%" y1="56.9810291%"
                        x1="-1.7890625%">
            <stop offset="12.26%" stop-color="#A3CD39"/>
            <stop offset="28.46%" stop-color="#86C339"/>
            <stop offset="86.93%" stop-color="#21A038"/>
        </linearGradient>
        <linearGradient id="svg_11" y2="58.1809607%" x2="92.4727273%" y1="40.2466885%"
                        x1="-7.53573668%">
            <stop offset="5.66%" stop-color="#0291EB"/>
            <stop offset="79%" stop-color="#0C8ACB"/>
        </linearGradient>
        <linearGradient id="svg_10" y2="62.3435198%" x2="100.269415%" y1="39.8389621%"
                        x1="7.91196809%">
            <stop offset="13.24%" stop-color="#F2E913"/>
            <stop offset="29.77%" stop-color="#EBE716"/>
            <stop offset="53.06%" stop-color="#D9E01F"/>
            <stop offset="80.23%" stop-color="#BBD62D"/>
            <stop offset="98.29%" stop-color="#A3CD39"/>
        </linearGradient>
        <linearGradient id="svg_9" y2="7.31835106%" x2="60.5224873%" y1="103.758511%"
                        x1="36.1894427%">
            <stop offset="6.98%" stop-color="#A3CD39"/>
            <stop offset="25.99%" stop-color="#81C55F"/>
            <stop offset="92.16%" stop-color="#0FA8E0"/>
        </linearGradient>
    </defs>
    <g transform="matrix(32.25358919213764,0,0,32.25358919213764,89.86687891885701,290.5496813743911) "
       id="svg_16" fill-rule="evenodd" fill="none">
        <path stroke="null" id="svg_18" fill="url(#svg_14)"
              d="m-0.96587,-1.009819c0,-0.10874 0,-0.20194 0.01556,-0.31068l-1.82039,-0.09321c0,0.12428 -0.01556,0.26408 -0.01556,0.38835c0,2.17476 0.88685,4.14758 2.31827,5.5767l1.29139,-1.28932c-1.10468,-1.08738 -1.78927,-2.59417 -1.78927,-4.27184z"/>
        <path stroke="null" id="svg_19" fill="url(#svg_13)"
              d="m5.10211,-7.068069c0.10891,0 0.20226,0 0.31117,0.01553l0.09336,-1.81748c-0.12447,0 -0.2645,-0.01553 -0.38898,-0.01553c-2.17824,0 -4.15423,0.88544 -5.58565,2.31456l1.29139,1.28932c1.08913,-1.10291 2.6139,-1.7864 4.27871,-1.7864z"/>
        <path stroke="null" id="svg_20" fill="url(#svg_12)"
              d="m5.10211,5.048431c-0.10892,0 -0.20227,0 -0.31118,-0.01553l-0.09336,1.81747c0.12447,0 0.26451,0.01554 0.38898,0.01554c2.17824,0 4.15423,-0.88544 5.58565,-2.31457l-1.29139,-1.28932c-1.08913,1.11845 -2.59834,1.78641 -4.2787,1.78641z"/>
        <path stroke="null" id="svg_21" fill="url(#svg_11)"
              d="m8.52507,-6.011759l1.54033,-1.13398c-1.35363,-1.08738 -3.08067,-1.75534 -4.96329,-1.75534l0,0l0,1.81747c1.27583,0.01554 2.4583,0.40389 3.42296,1.07185z"/>
        <path stroke="null" id="svg_22" fill="#21A038"
              d="m13.00603,-1.009819c0,-0.48156 -0.04667,-0.94757 -0.12447,-1.41359l-1.69592,1.25825c0,0.0466 0,0.10874 0,0.15534c0,1.78641 -0.77795,3.38641 -2.0071,4.48932l1.22915,1.35145c1.58701,-1.42912 2.59834,-3.52621 2.59834,-5.84077z"/>
        <path stroke="null" id="svg_23" fill="url(#svg_10)"
              d="m5.10211,5.048431c-1.78928,0 -3.39185,-0.7767 -4.49653,-2.00388l-1.35363,1.22718c1.44698,1.6 3.53188,2.59418 5.85016,2.59418l0,-1.81748l0,0z"/>
        <path stroke="null" id="svg_24" fill="url(#svg_9)"
              d="m1.04123,-5.499139l-1.22915,-1.35146c-1.60257,1.44466 -2.59834,3.52621 -2.59834,5.84078l1.82039,0c0,-1.77088 0.77795,-3.38641 2.0071,-4.48932z"/>
    </g>
    <path fill="#21A038"
          d="m215.033326,313.143739l-5.091917,71.620317c7.285161,0 10.440354,-3.129541 14.224021,-6.887556l34.155606,-32.642139l70.773801,51.829817c12.9799,7.233857 22.124829,3.424539 25.626324,-11.940995l46.455728,-217.682667l0.012826,-0.012826c4.117142,-19.187678 -6.938859,-26.690881 -19.585284,-21.983743l-273.065283,104.544628c-18.63616,7.233857 -18.353989,17.622907 -3.168019,22.330045l69.811852,21.714398l162.158966,-101.466391c7.631463,-5.053439 14.570322,-2.257374 8.862758,2.796065l-131.171379,117.781047z"/>
</svg>